<svg width="36" height="35" viewBox="0 0 36 35" fill="none" xmlns="http://www.w3.org/2000/svg">
<path d="M5.49844 26.1741C5.42113 26.1952 5.35404 26.1652 5.29718 26.084C4.12095 24.4248 3.30538 22.6266 2.85048 20.6894C2.6652 19.9004 2.55658 19.1084 2.52464 18.3136C2.52272 18.2667 2.47384 18.237 2.43168 18.2571C2.32178 18.3088 2.25693 18.2897 2.23713 18.1996C2.21988 18.1216 2.20933 18.0766 2.2055 18.0645C2.17036 17.9488 2.18633 17.8453 2.25342 17.754C2.27163 17.7281 2.28217 17.6984 2.28121 17.6687L2.26492 16.1889C2.26396 16.1573 2.2745 16.1267 2.29367 16.1027C2.34926 16.0324 2.37801 16.0458 2.37992 16.1429C2.3812 16.1743 2.38503 16.2004 2.39142 16.2215C2.44956 16.3991 2.48918 16.3886 2.51026 16.1899C2.53326 15.9708 2.56169 15.7523 2.59556 15.5344C2.59747 15.5191 2.62367 15.2996 2.67414 14.876C2.69523 14.6984 2.72877 14.523 2.77477 14.3499C2.83355 14.1288 2.87668 13.9557 2.90415 13.8304C2.95654 13.5857 3.02746 13.3219 3.1169 13.0388C3.79862 10.8819 4.88572 8.97409 6.37821 7.31549C6.96537 6.66316 7.6145 6.08016 8.32561 5.56648C8.34733 5.55115 8.3665 5.52751 8.38311 5.49556C8.41058 5.44253 8.44987 5.40388 8.50098 5.3796C8.60001 5.33168 8.65209 5.3058 8.6572 5.30197C10.2487 4.17558 11.9878 3.36097 13.8745 2.85815C14.4144 2.71376 14.9195 2.41954 15.3897 1.9755C16.042 1.3596 16.7384 0.842082 17.4789 0.422958C17.5978 0.355234 17.5888 0.321691 17.4521 0.32233C15.4268 0.326803 13.4666 0.682035 11.5716 1.38803C10.2887 1.86593 9.13159 2.46714 8.10039 3.19166C7.99625 3.2645 7.90233 3.27568 7.81863 3.22521C10.948 1.12512 14.4122 0.111491 18.2111 0.184326C18.2808 0.185604 18.2833 0.199341 18.2188 0.225536C17.3818 0.564157 16.625 1.03088 15.9484 1.6257C15.6769 1.86465 15.4047 2.10296 15.1319 2.34064C14.9709 2.4812 14.7517 2.61473 14.4745 2.74123C14.316 2.81279 14.0745 2.89489 13.7499 2.98753C9.73312 4.13309 6.67179 6.47309 4.56595 10.0075C3.60567 11.6201 2.99104 13.4011 2.72206 15.3504C2.63581 15.9784 2.59268 16.6154 2.59268 17.2614C2.5946 20.5306 3.56318 23.5016 5.49844 26.1741Z" fill="black"/>
<path d="M5.49844 26.1741C6.13926 27.0264 6.85644 27.8078 7.6506 28.5183C7.56946 28.5406 7.56083 28.5691 7.62472 28.6036C7.65252 28.6179 7.67264 28.6419 7.68222 28.6697C7.72695 28.8083 7.80777 28.9125 7.92469 28.9821C8.09336 29.0824 8.17994 29.1342 8.18441 29.1374C9.38364 30.067 10.733 30.8343 12.2325 31.4394C13.9493 32.1319 15.5571 31.9716 17.056 30.9583C17.194 30.865 17.3352 30.7417 17.4796 30.5883C18.3478 29.6683 19.388 29.0291 20.6 28.6707C21.191 28.4956 21.4884 28.4074 21.4922 28.4062C21.9177 28.2547 22.4611 28.0359 23.1224 27.7497C23.645 27.5229 24.052 27.2897 24.3434 27.0501C24.3664 27.0309 24.3961 27.0184 24.4277 27.0146C24.5778 26.9993 24.6778 26.9488 24.7277 26.8632C24.8382 26.6728 24.926 26.545 24.9912 26.4798C25.0219 26.4485 25.0158 26.4332 24.973 26.4338C25.6637 25.8831 26.2933 25.2694 26.8619 24.5928C26.867 24.6395 26.8859 24.6634 26.9185 24.6647C26.9376 24.6654 26.96 24.6551 26.9856 24.634C27.1683 24.4794 27.306 24.3079 27.3986 24.1194C27.4651 23.9859 27.5366 23.867 27.6133 23.7629C27.7398 23.5923 27.8187 23.4795 27.85 23.4246C28.4078 22.4426 28.8457 21.4111 29.1639 20.33C29.2617 19.9972 29.3383 19.6528 29.3939 19.2969C29.4482 18.9475 29.492 18.597 29.5252 18.2456C29.531 18.1824 29.5875 18.1373 29.6498 18.145C29.7501 18.1578 29.8329 18.1376 29.898 18.0846C29.9249 18.0626 29.9392 18.0319 29.9335 18.0051L29.8559 17.593C29.8492 17.5594 29.8233 17.5345 29.7936 17.5326C29.7373 17.5294 29.6846 17.5984 29.6354 17.7396C29.6118 17.808 29.5987 17.806 29.5961 17.7339C29.5757 17.1007 29.5227 16.4666 29.4371 15.8315C29.3463 15.1626 29.2083 14.5431 29.023 13.9732C28.4838 12.3191 27.651 10.8774 26.5246 9.64816C24.8066 7.77425 22.664 6.57374 20.0969 6.04665C19.8924 6.00448 19.6237 5.96167 19.2909 5.91823C19.0219 5.88309 18.7532 5.84699 18.4849 5.80993C18.4536 5.80546 18.4482 5.79076 18.4686 5.76584C18.8328 5.32053 19.2624 4.96913 19.7576 4.71165C20.1659 4.49953 20.5949 4.3775 21.0447 4.34556C21.5207 4.31169 21.9736 4.37015 22.4036 4.52093C24.9733 5.42371 27.0999 6.9475 28.7835 9.09231C29.1853 9.60408 29.5415 10.1337 29.852 10.6813C30.6494 12.085 31.1886 13.5896 31.4697 15.1952C31.5317 15.5497 31.5627 15.729 31.5627 15.7328C31.587 15.9404 31.5726 16.1244 31.5196 16.2848C31.4908 16.3723 31.4164 16.4375 31.2963 16.4803C31.2714 16.4889 31.2397 16.4851 31.2091 16.4688C31.1311 16.4286 31.0592 16.4397 30.9934 16.5024C30.9104 16.5809 30.8554 16.6745 30.8286 16.7832C30.8209 16.8151 30.8075 16.8429 30.7883 16.8665C30.644 17.0448 30.5893 17.2467 30.6245 17.4722C30.6293 17.5019 30.6503 17.5259 30.6791 17.5345C30.7513 17.5556 30.7938 17.5476 30.8066 17.5106C30.8343 17.431 30.8928 17.3668 30.9695 17.3323C31.2512 17.2045 31.3774 17.2333 31.348 17.4186C31.3375 17.4828 31.2723 17.523 31.21 17.5038C31.0005 17.4374 30.9091 17.4984 30.9359 17.6869C30.9407 17.7195 30.9618 17.7454 30.9896 17.7501L31.4132 17.8278C31.4343 17.8316 31.4554 17.8105 31.4592 17.7818L31.5234 17.3103C31.5263 17.2882 31.5397 17.27 31.5579 17.2614C31.572 17.2556 31.5841 17.2566 31.5943 17.2643C31.6046 17.2726 31.6097 17.2882 31.6097 17.3112C31.6148 18.1443 31.6068 18.6468 31.5857 18.8187C31.2228 21.7813 30.0629 24.343 28.1059 26.5038C26.6479 28.1126 24.8915 29.3259 22.8368 30.1437C22.6854 30.2044 22.2826 30.3325 21.6283 30.528C21.2117 30.6532 20.8054 30.8068 20.4093 30.9889C20.1454 31.1103 19.9227 31.2391 19.7413 31.3752C19.5528 31.5164 19.358 31.6853 19.1567 31.8821C17.6482 33.3586 15.8178 34.0305 13.6653 33.8976C13.0781 33.8618 12.4708 33.7311 11.8434 33.5056C10.0577 32.8635 8.44221 31.9738 6.997 30.8366C6.48715 30.4353 6.00349 30.0178 5.54604 29.584C4.27525 28.379 3.22871 26.9935 2.40644 25.4276C1.63272 23.953 1.06921 22.4071 0.71589 20.7901C0.580441 20.1729 0.488438 19.5413 0.439881 18.8954C0.37024 17.9696 0.365128 17.0419 0.424547 16.1123C0.491632 15.0619 0.696082 13.9276 1.0379 12.7092C1.48322 11.1208 2.11925 9.69512 2.946 8.432C2.94855 8.42689 2.96868 8.40102 3.00638 8.35438C3.0594 8.28921 3.04343 8.23937 2.95846 8.20487C4.23627 6.21148 5.85654 4.55158 7.81863 3.22521C7.90233 3.27568 7.99625 3.2645 8.10039 3.19166C9.13159 2.46714 10.2887 1.86593 11.5716 1.38803C13.4666 0.682035 15.4268 0.326803 17.4521 0.32233C17.5888 0.321691 17.5978 0.355234 17.4789 0.422958C16.7384 0.842082 16.042 1.3596 15.3897 1.9755C14.9195 2.41954 14.4144 2.71376 13.8745 2.85815C11.9878 3.36097 10.2487 4.17558 8.6572 5.30197C8.65209 5.3058 8.60001 5.33168 8.50098 5.3796C8.44987 5.40388 8.41058 5.44253 8.38311 5.49556C8.3665 5.52751 8.34733 5.55115 8.32561 5.56648C7.6145 6.08016 6.96537 6.66316 6.37821 7.31549C4.88572 8.97409 3.79862 10.8819 3.1169 13.0388C3.02746 13.3219 2.95654 13.5857 2.90415 13.8304C2.87668 13.9557 2.83355 14.1288 2.77477 14.3499C2.72877 14.523 2.69523 14.6984 2.67414 14.876C2.62367 15.2996 2.59747 15.5191 2.59556 15.5344C2.56169 15.7523 2.53326 15.9708 2.51026 16.1899C2.48918 16.3886 2.44956 16.3991 2.39142 16.2215C2.38503 16.2004 2.3812 16.1743 2.37992 16.1429C2.37801 16.0458 2.34926 16.0324 2.29367 16.1027C2.2745 16.1267 2.26396 16.1573 2.26492 16.1889L2.28121 17.6687C2.28217 17.6984 2.27163 17.7281 2.25342 17.754C2.18633 17.8453 2.17036 17.9488 2.2055 18.0645C2.20933 18.0766 2.21988 18.1216 2.23713 18.1996C2.25693 18.2897 2.32178 18.3088 2.43168 18.2571C2.47384 18.237 2.52272 18.2667 2.52464 18.3136C2.55658 19.1084 2.6652 19.9004 2.85048 20.6894C3.30538 22.6266 4.12095 24.4248 5.29718 26.084C5.35404 26.1652 5.42113 26.1952 5.49844 26.1741Z" fill="black"/>
<path d="M27.9959 3.43667C27.9109 3.48012 27.8199 3.46606 27.7228 3.3945C26.4692 2.4764 25.0317 1.74964 23.4101 1.21423C22.8185 1.01937 22.1809 0.916184 21.4972 0.904684C21.0104 0.897017 20.5814 0.919698 20.2102 0.972727C19.7981 1.03215 19.3793 1.14076 18.9537 1.29857C18.0695 1.62633 17.2948 2.08602 16.6297 2.67765C16.0777 3.16897 15.795 3.41942 15.7816 3.42901C15.2941 3.77913 14.7401 4.03725 14.1198 4.20336C13.0445 4.49151 11.9842 4.92373 10.939 5.50002C10.9351 5.50194 10.8348 5.56519 10.638 5.68978C10.5134 5.76836 10.3796 5.83002 10.2365 5.87474C10.1854 5.89071 10.162 5.87794 10.1665 5.83641C11.3945 5.05375 12.6963 4.47745 14.0718 4.10753C14.9107 3.88199 15.6388 3.48459 16.256 2.91532C16.6042 2.59332 16.7792 2.43167 16.7811 2.43039C18.2781 1.19347 19.9814 0.654232 21.8911 0.812681C22.461 0.859321 23.0824 0.998923 23.7551 1.23149C25.2706 1.75603 26.6842 2.49109 27.9959 3.43667Z" fill="black"/>
<path d="M27.9959 3.43667C29.1472 4.24425 30.1813 5.18128 31.0987 6.24762C33.5062 9.04539 34.8737 12.2933 35.2015 15.9913C35.3325 17.4697 35.2628 18.9379 34.9926 20.3959C34.2514 24.3974 32.3491 27.7222 29.2855 30.3705C29.1462 30.3392 29.0354 30.3692 28.953 30.4606C28.8482 30.5769 28.7929 30.6376 28.7872 30.6427C27.5579 31.6196 26.2315 32.4281 24.8081 33.0683C24.2209 33.3328 23.6235 33.5567 23.0159 33.7401C21.9892 34.0506 20.9404 34.2691 19.8696 34.3956C19.3681 34.4544 18.8736 34.4774 18.3861 34.4646C18.2046 34.4595 18.1858 34.4017 18.3295 34.2912C18.4452 34.2017 18.5413 34.095 18.618 33.9711C18.6333 33.9462 18.6592 33.9289 18.6889 33.9241C18.8953 33.8896 19.0729 33.805 19.2218 33.6701C19.4 33.5091 19.4914 33.427 19.4958 33.4239C19.7099 33.2571 19.8805 33.1066 20.0076 32.9725C20.4529 32.5003 20.9679 32.1818 21.5525 32.017C22.4661 31.7595 23.3568 31.4391 24.2244 31.0557C24.2794 31.0308 24.304 30.9768 24.2982 30.8938C26.5714 29.8 28.4722 28.2506 30.0005 26.2457C30.0394 26.2745 30.0806 26.2665 30.1241 26.2218C30.25 26.0921 30.3324 25.9988 30.3713 25.9419C32.2357 23.2304 33.1231 20.2272 33.0337 16.9324C33.0318 16.88 33.0417 16.7937 33.0634 16.6736C33.0794 16.5829 33.0771 16.4938 33.0567 16.4062C33.0036 16.1807 32.9768 16.0638 32.9762 16.0555C32.7098 13.367 31.7865 10.9282 30.2065 8.73935C29.5331 7.80655 29.0284 7.17914 28.6923 6.85714C27.4816 5.6956 26.13 4.73117 24.6375 3.96384C24.5263 3.90634 24.4324 3.84852 24.3557 3.79038C24.203 3.67282 24.0315 3.60574 23.8411 3.58913C23.8104 3.58625 23.7826 3.57379 23.7606 3.55271C23.6532 3.4492 23.5238 3.40256 23.3724 3.41279C23.3539 3.41407 23.3363 3.41119 23.3197 3.40416C22.7383 3.16585 22.1726 3.01954 21.6225 2.96523C21.0551 2.90965 20.4852 2.97418 19.9127 3.15882C19.1742 3.39777 18.5164 3.78687 17.9395 4.3261C17.59 4.65259 17.414 4.8171 17.4114 4.81966C16.6428 5.46048 15.7911 5.90804 14.8564 6.16232C13.3198 6.57953 11.9312 7.21972 10.6904 8.08288C10.6221 8.1308 10.5569 8.18287 10.4949 8.23909C10.4323 8.29531 10.3678 8.34643 10.3013 8.39243C10.1103 8.52468 9.96334 8.67163 9.86047 8.83327C9.82406 8.89142 9.8461 8.91474 9.9266 8.90324C7.82459 10.818 6.57968 13.1587 6.19186 15.9251C6.10242 16.5609 6.07207 17.1975 6.10082 17.8352C6.21838 20.4777 7.14831 22.8119 8.89061 24.8379C9.82981 25.9304 10.9498 26.8243 12.2506 27.5194C12.3113 27.6382 12.4151 27.7328 12.5621 27.8031C13.9952 28.4867 15.4787 28.8867 17.0127 29.0029C17.0447 29.0055 17.0511 29.0195 17.0319 29.0451C16.9431 29.1601 16.8479 29.2703 16.7463 29.3757C16.0365 30.1137 15.2075 30.481 14.2594 30.4778C13.7495 30.4759 13.1339 30.3251 12.4126 30.0255C11.8159 29.777 11.2405 29.485 10.6866 29.1496C10.2419 28.8806 9.86654 28.633 9.56051 28.4068C9.21102 28.1487 8.86889 27.8551 8.5341 27.5261C8.46063 27.4545 8.38044 27.3913 8.29355 27.3363C8.19835 27.2769 8.11977 27.2715 8.0578 27.3201C7.65464 26.9495 7.28056 26.5514 6.93555 26.1259C6.96878 26.1023 6.98571 26.071 6.98635 26.032C6.98699 26.0052 6.97421 25.9758 6.94801 25.9438C5.19996 23.8048 4.19144 21.3619 3.92246 18.6153C3.88285 18.2115 3.86656 17.9473 3.87358 17.8227C3.88892 17.5729 3.94802 17.3119 4.05088 17.0397C4.09369 16.926 4.05727 16.8503 3.94163 16.8126C3.91383 16.803 3.89467 16.779 3.89371 16.7512C3.89243 16.5404 3.92278 16.2072 3.98476 15.7517C4.28185 13.5679 5.01468 11.6093 6.18324 9.87597C6.21071 9.83444 6.20592 9.77247 6.16886 9.69005C7.23265 8.12664 8.56542 6.84205 10.1665 5.83641C10.162 5.87794 10.1854 5.89071 10.2365 5.87474C10.3796 5.83002 10.5134 5.76836 10.638 5.68978C10.8348 5.56519 10.9351 5.50194 10.939 5.50002C11.9842 4.92373 13.0445 4.49151 14.1198 4.20336C14.7401 4.03725 15.2941 3.77913 15.7816 3.42901C15.795 3.41942 16.0777 3.16897 16.6297 2.67765C17.2948 2.08602 18.0695 1.62633 18.9537 1.29857C19.3793 1.14076 19.7981 1.03215 20.2102 0.972727C20.5814 0.919698 21.0104 0.897017 21.4972 0.904684C22.1809 0.916184 22.8185 1.01937 23.4101 1.21423C25.0317 1.74964 26.4692 2.4764 27.7228 3.3945C27.8199 3.46606 27.9109 3.48012 27.9959 3.43667Z" fill="black"/>
<path d="M30.0005 26.2457C31.6917 23.9655 32.6577 21.4252 32.8979 18.6249C32.9516 17.9968 32.9592 17.3585 32.9209 16.7101C32.719 13.3187 31.5252 10.3379 29.3395 7.76759C27.6585 5.79017 25.5805 4.34593 23.1054 3.43485C22.5163 3.21762 21.9924 3.09782 21.5336 3.07546C20.1766 3.00774 18.9895 3.46999 17.9724 4.46221C17.2645 5.15351 16.4575 5.67805 15.5515 6.03583C15.5515 6.03583 15.1152 6.1716 14.2463 6.44314C12.6356 6.9466 11.1955 7.76662 9.9266 8.90324C9.8461 8.91474 9.82406 8.89142 9.86047 8.83327C9.96334 8.67163 10.1103 8.52468 10.3013 8.39243C10.3678 8.34643 10.4323 8.29531 10.4949 8.23909C10.5569 8.18287 10.6221 8.1308 10.6904 8.08288C11.9312 7.21972 13.3198 6.57953 14.8564 6.16232C15.7911 5.90804 16.6428 5.46048 17.4114 4.81966C17.414 4.8171 17.59 4.65259 17.9395 4.3261C18.5164 3.78687 19.1742 3.39777 19.9127 3.15882C20.4852 2.97418 21.0551 2.90965 21.6225 2.96523C22.1726 3.01954 22.7383 3.16585 23.3197 3.40416C23.3363 3.41119 23.3539 3.41407 23.3724 3.41279C23.5238 3.40256 23.6532 3.4492 23.7606 3.55271C23.7826 3.57379 23.8104 3.58625 23.8411 3.58913C24.0315 3.60574 24.203 3.67282 24.3557 3.79038C24.4324 3.84852 24.5263 3.90634 24.6375 3.96384C26.13 4.73117 27.4816 5.6956 28.6923 6.85714C29.0284 7.17914 29.5331 7.80655 30.2065 8.73935C31.7865 10.9282 32.7098 13.367 32.9762 16.0555C32.9768 16.0638 33.0036 16.1807 33.0567 16.4062C33.0771 16.4938 33.0794 16.5829 33.0634 16.6736C33.0417 16.7937 33.0318 16.88 33.0337 16.9324C33.1231 20.2272 32.2357 23.2304 30.3713 25.9419C30.3324 25.9988 30.25 26.0921 30.1241 26.2218C30.0806 26.2665 30.0394 26.2745 30.0005 26.2457Z" fill="black"/>
<path d="M2.95846 8.20487C3.04343 8.23937 3.0594 8.28921 3.00638 8.35438C2.96868 8.40102 2.94855 8.42689 2.946 8.432C2.11925 9.69512 1.48322 11.1208 1.0379 12.7092C0.696082 13.9276 0.491632 15.0619 0.424547 16.1123C0.365128 17.0419 0.37024 17.9696 0.439881 18.8954C0.488438 19.5413 0.580441 20.1729 0.71589 20.7901C1.06921 22.4071 1.63272 23.953 2.40644 25.4276C3.22871 26.9935 4.27525 28.379 5.54604 29.584C6.00349 30.0178 6.48715 30.4353 6.997 30.8366C8.44221 31.9738 10.0577 32.8635 11.8434 33.5056C12.4708 33.7311 13.0781 33.8618 13.6653 33.8976C15.8178 34.0305 17.6482 33.3586 19.1567 31.8821C19.358 31.6853 19.5528 31.5164 19.7413 31.3752C19.9227 31.2391 20.1454 31.1103 20.4093 30.9889C20.8054 30.8068 21.2117 30.6532 21.6283 30.528C22.2826 30.3325 22.6854 30.2044 22.8368 30.1437C24.8915 29.3259 26.6479 28.1126 28.1059 26.5038C30.0629 24.343 31.2228 21.7813 31.5857 18.8187C31.6068 18.6468 31.6148 18.1443 31.6097 17.3112C31.6097 17.2882 31.6046 17.2726 31.5943 17.2643C31.5841 17.2566 31.572 17.2556 31.5579 17.2614C31.5397 17.27 31.5263 17.2882 31.5234 17.3103L31.4592 17.7818C31.4554 17.8105 31.4343 17.8316 31.4132 17.8278L30.9896 17.7501C30.9618 17.7454 30.9407 17.7195 30.9359 17.6869C30.9091 17.4984 31.0005 17.4374 31.21 17.5038C31.2723 17.523 31.3375 17.4828 31.348 17.4186C31.3774 17.2333 31.2512 17.2045 30.9695 17.3323C30.8928 17.3668 30.8343 17.431 30.8066 17.5106C30.7938 17.5476 30.7513 17.5556 30.6791 17.5345C30.6503 17.5259 30.6293 17.5019 30.6245 17.4722C30.5893 17.2467 30.644 17.0448 30.7883 16.8665C30.8075 16.8429 30.8209 16.8151 30.8286 16.7832C30.8554 16.6745 30.9104 16.5809 30.9934 16.5024C31.0592 16.4397 31.1311 16.4286 31.2091 16.4688C31.2397 16.4851 31.2714 16.4889 31.2963 16.4803C31.4164 16.4375 31.4908 16.3723 31.5196 16.2848C31.5726 16.1244 31.587 15.9404 31.5627 15.7328C31.5627 15.729 31.5317 15.5497 31.4697 15.1952C31.1886 13.5896 30.6494 12.085 29.852 10.6813C29.5415 10.1337 29.1853 9.60408 28.7835 9.09231C27.0999 6.9475 24.9733 5.42371 22.4036 4.52093C21.9736 4.37015 21.5207 4.31169 21.0447 4.34556C20.5949 4.3775 20.1659 4.49953 19.7576 4.71165C19.2624 4.96913 18.8328 5.32053 18.4686 5.76584C18.4482 5.79076 18.4536 5.80546 18.4849 5.80993C18.7532 5.84699 19.0219 5.88309 19.2909 5.91823C19.6237 5.96167 19.8924 6.00448 20.0969 6.04665C22.664 6.57374 24.8066 7.77425 26.5246 9.64816C27.651 10.8774 28.4838 12.3191 29.023 13.9732C29.2083 14.5431 29.3463 15.1626 29.4371 15.8315C29.5227 16.4666 29.5757 17.1007 29.5961 17.7339C29.5987 17.806 29.6118 17.808 29.6354 17.7396C29.6846 17.5984 29.7373 17.5294 29.7936 17.5326C29.8233 17.5345 29.8492 17.5594 29.8559 17.593L29.9335 18.0051C29.9392 18.0319 29.9249 18.0626 29.898 18.0846C29.8329 18.1376 29.7501 18.1578 29.6498 18.145C29.5875 18.1373 29.531 18.1824 29.5252 18.2456C29.492 18.597 29.4482 18.9475 29.3939 19.2969C29.3383 19.6528 29.2617 19.9972 29.1639 20.33C28.8457 21.4111 28.4078 22.4426 27.85 23.4246C27.8187 23.4795 27.7398 23.5923 27.6133 23.7629C27.5366 23.867 27.4651 23.9859 27.3986 24.1194C27.306 24.3079 27.1683 24.4794 26.9856 24.634C26.96 24.6551 26.9376 24.6654 26.9185 24.6647C26.8859 24.6634 26.867 24.6395 26.8619 24.5928C28.2158 22.9093 29.0398 21.0148 29.3337 18.9089C29.42 18.2886 29.4491 17.6512 29.4209 16.997C29.2836 13.8664 28.0786 11.2331 25.806 9.09723C23.7002 7.11854 21.1468 6.05508 18.1458 5.90685C18.1132 5.90557 18.1091 5.89439 18.1334 5.87331C18.3455 5.69058 18.555 5.50594 18.762 5.31938C19.047 5.06254 19.2629 4.88524 19.4099 4.78749C20.3242 4.17861 21.3081 4.04795 22.3617 4.39552C24.3078 5.03698 26.0708 6.13335 27.6509 7.68461C29.4309 9.43266 30.6448 11.4928 31.2926 13.8651C31.7322 15.477 31.8619 17.1443 31.6817 18.8668C31.4619 20.9681 30.7697 22.9309 29.605 24.7549C29.2625 25.291 28.8808 25.8024 28.4597 26.2893C26.6989 28.3255 24.5256 29.7505 21.94 30.5645C21.1062 30.8265 20.628 30.9872 20.5053 31.0466C20.044 31.2683 19.6271 31.5634 19.2546 31.9321C18.7972 32.3844 18.288 32.7684 17.727 33.084C16.1144 33.9913 14.4382 34.2501 12.6985 33.8603C12.1937 33.7472 11.5897 33.5415 10.8862 33.2431C7.87313 31.966 5.40502 30.0064 3.48191 27.3645C3.10112 26.8413 2.75611 26.304 2.44688 25.7526C0.988252 23.1516 0.261173 20.3471 0.265646 17.3391C0.270118 14.043 1.1676 10.9982 2.95846 8.20487Z" fill="black"/>
<path d="M6.16886 9.69005C6.20592 9.77247 6.21071 9.83444 6.18324 9.87597C5.01468 11.6093 4.28185 13.5679 3.98476 15.7517C3.92278 16.2072 3.89243 16.5404 3.89371 16.7512C3.89467 16.779 3.91383 16.803 3.94163 16.8126C4.05727 16.8503 4.09369 16.926 4.05088 17.0397C3.94802 17.3119 3.88892 17.5729 3.87358 17.8227C3.86656 17.9473 3.88285 18.2115 3.92246 18.6153C4.19144 21.3619 5.19996 23.8048 6.94801 25.9438C6.97421 25.9758 6.98699 26.0052 6.98635 26.032C6.98571 26.071 6.96878 26.1023 6.93555 26.1259C5.09486 23.9019 4.05574 21.3946 3.81743 18.6032C3.5427 15.385 4.32625 12.4137 6.16886 9.69005Z" fill="black"/>
<path d="M24.973 26.4338C25.0158 26.4332 25.0219 26.4485 24.9912 26.4798C24.926 26.545 24.8382 26.6728 24.7277 26.8632C24.6778 26.9488 24.5778 26.9993 24.4277 27.0146C24.3961 27.0184 24.3664 27.0309 24.3434 27.0501C24.052 27.2897 23.645 27.5229 23.1224 27.7497C22.4611 28.0359 21.9177 28.2547 21.4922 28.4062C21.4884 28.4074 21.191 28.4956 20.6 28.6707C19.388 29.0291 18.3478 29.6683 17.4796 30.5883C17.3352 30.7417 17.194 30.865 17.056 30.9583C15.5571 31.9716 13.9493 32.1319 12.2325 31.4394C10.733 30.8343 9.38364 30.067 8.18441 29.1374C8.17994 29.1342 8.09336 29.0824 7.92469 28.9821C7.80777 28.9125 7.72695 28.8083 7.68222 28.6697C7.67264 28.6419 7.65252 28.6179 7.62472 28.6036C7.56083 28.5691 7.56946 28.5406 7.6506 28.5183C9.12328 29.8255 10.7548 30.799 12.5443 31.4392C14.1985 32.0308 15.7239 31.7951 17.1205 30.732C17.2483 30.6355 17.4211 30.4841 17.639 30.2777C17.8639 30.0643 18.0358 29.9113 18.1546 29.8186C18.9366 29.211 19.842 28.7689 20.8706 28.4923C22.335 28.0981 23.7022 27.412 24.973 26.4338Z" fill="black"/>
<path d="M12.2506 27.5194C13.8434 28.3672 15.5648 28.8221 17.4138 28.8835C17.4502 28.8847 17.4543 28.8969 17.4262 28.9199C17.1847 29.1211 16.9496 29.3246 16.7209 29.5303C16.4104 29.8102 16.1673 30.0019 15.9916 30.1054C15.4453 30.4274 14.861 30.5877 14.2387 30.5865C13.7832 30.5852 13.2238 30.4532 12.5606 30.1907C10.8848 29.5256 9.38353 28.5685 8.0578 27.3201C8.11977 27.2715 8.19835 27.2769 8.29355 27.3363C8.38044 27.3913 8.46063 27.4545 8.5341 27.5261C8.86889 27.8551 9.21102 28.1487 9.56051 28.4068C9.86654 28.633 10.2419 28.8806 10.6866 29.1496C11.2405 29.485 11.8159 29.777 12.4126 30.0255C13.1339 30.3251 13.7495 30.4759 14.2594 30.4778C15.2075 30.481 16.0365 30.1137 16.7463 29.3757C16.8479 29.2703 16.9431 29.1601 17.0319 29.0451C17.0511 29.0195 17.0447 29.0055 17.0127 29.0029C15.4787 28.8867 13.9952 28.4867 12.5621 27.8031C12.4151 27.7328 12.3113 27.6382 12.2506 27.5194Z" fill="black"/>
<path d="M29.2855 30.3705C25.9261 33.22 21.9813 34.6405 17.4501 34.6316C17.2776 34.6309 17.2706 34.5967 17.4291 34.529C18.2207 34.191 18.9369 33.7505 19.5777 33.2074C19.5803 33.2049 19.7263 33.0678 20.0157 32.7963C20.5159 32.3248 21.098 31.9967 21.7618 31.8121C22.2033 31.6894 22.425 31.6277 22.4269 31.6271C23.0639 31.4169 23.6874 31.1723 24.2982 30.8938C24.304 30.9768 24.2794 31.0308 24.2244 31.0557C23.3568 31.4391 22.4661 31.7595 21.5525 32.017C20.9679 32.1818 20.4529 32.5003 20.0076 32.9725C19.8805 33.1066 19.7099 33.2571 19.4958 33.4239C19.4914 33.427 19.4 33.5091 19.2218 33.6701C19.0729 33.805 18.8953 33.8896 18.6889 33.9241C18.6592 33.9289 18.6333 33.9462 18.618 33.9711C18.5413 34.095 18.4452 34.2017 18.3295 34.2912C18.1858 34.4017 18.2046 34.4595 18.3861 34.4646C18.8736 34.4774 19.3681 34.4544 19.8696 34.3956C20.9404 34.2691 21.9892 34.0506 23.0159 33.7401C23.6235 33.5567 24.2209 33.3328 24.8081 33.0683C26.2315 32.4281 27.5579 31.6196 28.7872 30.6427C28.7929 30.6376 28.8482 30.5769 28.953 30.4606C29.0354 30.3692 29.1462 30.3392 29.2855 30.3705Z" fill="black"/>
</svg>
