<svg width="106" height="36" viewBox="0 0 106 36" fill="none" xmlns="http://www.w3.org/2000/svg">
<path d="M5.4985 27.1741C5.42119 27.1952 5.3541 27.1652 5.29724 27.084C4.12101 25.4248 3.30544 23.6266 2.85054 21.6894C2.66526 20.9004 2.55664 20.1084 2.5247 19.3136C2.52278 19.2667 2.47391 19.237 2.43174 19.2571C2.32185 19.3088 2.257 19.2897 2.23719 19.1996C2.21994 19.1216 2.2094 19.0766 2.20556 19.0645C2.17042 18.9488 2.18639 18.8453 2.25348 18.754C2.27169 18.7281 2.28223 18.6984 2.28127 18.6687L2.26498 17.1889C2.26402 17.1573 2.27457 17.1267 2.29373 17.1027C2.34932 17.0324 2.37807 17.0458 2.37998 17.1429C2.38126 17.1743 2.3851 17.2004 2.39148 17.2215C2.44963 17.3991 2.48924 17.3886 2.51032 17.1899C2.53332 16.9708 2.56175 16.7523 2.59562 16.5344C2.59753 16.5191 2.62373 16.2996 2.6742 15.876C2.69529 15.6984 2.72883 15.523 2.77483 15.3499C2.83361 15.1288 2.87674 14.9557 2.90421 14.8304C2.9566 14.5857 3.02752 14.3219 3.11697 14.0388C3.79868 11.8819 4.88578 9.97409 6.37827 8.31549C6.96543 7.66316 7.61456 7.08016 8.32567 6.56648C8.34739 6.55115 8.36656 6.52751 8.38317 6.49556C8.41064 6.44253 8.44993 6.40388 8.50105 6.3796C8.60008 6.33168 8.65215 6.3058 8.65726 6.30197C10.2488 5.17558 11.9879 4.36097 13.8746 3.85815C14.4145 3.71376 14.9195 3.41954 15.3898 2.9755C16.0421 2.3596 16.7385 1.84208 17.479 1.42296C17.5978 1.35523 17.5889 1.32169 17.4522 1.32233C15.4268 1.3268 13.4666 1.68203 11.5716 2.38803C10.2887 2.86593 9.13165 3.46714 8.10045 4.19166C7.99631 4.2645 7.90239 4.27568 7.81869 4.22521C10.9481 2.12512 14.4122 1.11149 18.2112 1.18433C18.2808 1.1856 18.2834 1.19934 18.2188 1.22554C17.3819 1.56416 16.6251 2.03088 15.9485 2.6257C15.6769 2.86465 15.4048 3.10296 15.132 3.34064C14.9709 3.4812 14.7518 3.61473 14.4745 3.74123C14.3161 3.81279 14.0746 3.89489 13.75 3.98753C9.73318 5.13309 6.67185 7.47309 4.56601 11.0075C3.60573 12.6201 2.9911 14.4011 2.72212 16.3504C2.63587 16.9784 2.59274 17.6154 2.59274 18.2614C2.59466 21.5306 3.56324 24.5016 5.4985 27.1741Z" fill="white"/>
<path d="M5.4985 27.1741C6.13932 28.0264 6.8565 28.8078 7.65066 29.5183C7.56952 29.5406 7.56089 29.5691 7.62479 29.6036C7.65258 29.6179 7.6727 29.6419 7.68229 29.6697C7.72701 29.8083 7.80783 29.9125 7.92475 29.9821C8.09342 30.0824 8.18 30.1342 8.18447 30.1374C9.3837 31.067 10.7331 31.8343 12.2326 32.4394C13.9493 33.1319 15.5572 32.9716 17.056 31.9583C17.194 31.865 17.3352 31.7417 17.4796 31.5883C18.3479 30.6683 19.388 30.0291 20.6001 29.6707C21.191 29.4956 21.4885 29.4074 21.4923 29.4062C21.9178 29.2547 22.4612 29.0359 23.1225 28.7497C23.6451 28.5229 24.0521 28.2897 24.3434 28.0501C24.3664 28.0309 24.3961 28.0184 24.4278 28.0146C24.5779 27.9993 24.6779 27.9488 24.7277 27.8632C24.8383 27.6728 24.9261 27.545 24.9913 27.4798C25.0219 27.4485 25.0159 27.4332 24.9731 27.4338C25.6637 26.8831 26.2934 26.2694 26.862 25.5928C26.8671 25.6395 26.886 25.6634 26.9185 25.6647C26.9377 25.6654 26.9601 25.6551 26.9856 25.634C27.1684 25.4794 27.306 25.3079 27.3987 25.1194C27.4651 24.9859 27.5367 24.867 27.6133 24.7629C27.7399 24.5923 27.8188 24.4795 27.8501 24.4246C28.4078 23.4426 28.8458 22.4111 29.164 21.33C29.2617 20.9972 29.3384 20.6528 29.394 20.2969C29.4483 19.9475 29.4921 19.597 29.5253 19.2456C29.531 19.1824 29.5876 19.1373 29.6499 19.145C29.7502 19.1578 29.8329 19.1376 29.8981 19.0846C29.9249 19.0626 29.9393 19.0319 29.9335 19.0051L29.8559 18.593C29.8492 18.5594 29.8233 18.5345 29.7936 18.5326C29.7374 18.5294 29.6847 18.5984 29.6355 18.7396C29.6119 18.808 29.5988 18.806 29.5962 18.7339C29.5758 18.1007 29.5227 17.4666 29.4371 16.8315C29.3464 16.1626 29.2084 15.5431 29.0231 14.9732C28.4839 13.3191 27.651 11.8774 26.5247 10.6482C24.8066 8.77425 22.664 7.57374 20.0969 7.04665C19.8925 7.00448 19.6238 6.96167 19.2909 6.91823C19.022 6.88309 18.7533 6.84699 18.4849 6.80993C18.4536 6.80546 18.4482 6.79076 18.4687 6.76584C18.8328 6.32053 19.2625 5.96913 19.7577 5.71165C20.1659 5.49953 20.5949 5.3775 21.0447 5.34556C21.5207 5.31169 21.9737 5.37015 22.4037 5.52093C24.9734 6.42371 27.1 7.9475 28.7835 10.0923C29.1854 10.6041 29.5416 11.1337 29.8521 11.6813C30.6494 13.085 31.1887 14.5896 31.4698 16.1952C31.5318 16.5497 31.5628 16.729 31.5628 16.7328C31.587 16.9404 31.5727 17.1244 31.5196 17.2848C31.4909 17.3723 31.4165 17.4375 31.2963 17.4803C31.2714 17.4889 31.2398 17.4851 31.2091 17.4688C31.1312 17.4286 31.0593 17.4397 30.9935 17.5024C30.9104 17.5809 30.8555 17.6745 30.8287 17.7832C30.821 17.8151 30.8076 17.8429 30.7884 17.8665C30.644 18.0448 30.5894 18.2467 30.6245 18.4722C30.6293 18.5019 30.6504 18.5259 30.6792 18.5345C30.7513 18.5556 30.7938 18.5476 30.8066 18.5106C30.8344 18.431 30.8929 18.3668 30.9695 18.3323C31.2513 18.2045 31.3775 18.2333 31.3481 18.4186C31.3375 18.4828 31.2724 18.523 31.2101 18.5038C31.0005 18.4374 30.9092 18.4984 30.936 18.6869C30.9408 18.7195 30.9619 18.7454 30.9897 18.7501L31.4133 18.8278C31.4343 18.8316 31.4554 18.8105 31.4593 18.7818L31.5235 18.3103C31.5263 18.2882 31.5398 18.27 31.558 18.2614C31.572 18.2556 31.5842 18.2566 31.5944 18.2643C31.6046 18.2726 31.6097 18.2882 31.6097 18.3112C31.6148 19.1443 31.6068 19.6468 31.5858 19.8187C31.2229 22.7813 30.0629 25.343 28.1059 27.5038C26.648 29.1126 24.8916 30.3259 22.8369 31.1437C22.6855 31.2044 22.2826 31.3325 21.6284 31.528C21.2118 31.6532 20.8055 31.8068 20.4093 31.9889C20.1455 32.1103 19.9228 32.2391 19.7414 32.3752C19.5529 32.5164 19.358 32.6853 19.1568 32.8821C17.6483 34.3586 15.8178 35.0305 13.6653 34.8976C13.0782 34.8618 12.4709 34.7311 11.8435 34.5056C10.0577 33.8635 8.44227 32.9738 6.99706 31.8366C6.48721 31.4353 6.00356 31.0178 5.5461 30.584C4.27531 29.379 3.22878 27.9935 2.4065 26.4276C1.63278 24.953 1.06927 23.4071 0.715951 21.7901C0.580502 21.1729 0.488499 20.5413 0.439942 19.8954C0.370301 18.9696 0.365189 18.0419 0.424608 17.1123C0.491693 16.0619 0.696143 14.9276 1.03796 13.7092C1.48328 12.1208 2.11931 10.6951 2.94606 9.432C2.94861 9.42689 2.96874 9.40102 3.00644 9.35438C3.05947 9.28921 3.04349 9.23937 2.95852 9.20487C4.23634 7.21148 5.8566 5.55158 7.81869 4.22521C7.90239 4.27568 7.99631 4.2645 8.10045 4.19166C9.13165 3.46714 10.2887 2.86593 11.5716 2.38803C13.4666 1.68203 15.4268 1.3268 17.4522 1.32233C17.5889 1.32169 17.5978 1.35523 17.479 1.42296C16.7385 1.84208 16.0421 2.3596 15.3898 2.9755C14.9195 3.41954 14.4145 3.71376 13.8746 3.85815C11.9879 4.36097 10.2488 5.17558 8.65726 6.30197C8.65215 6.3058 8.60008 6.33168 8.50105 6.3796C8.44993 6.40388 8.41064 6.44253 8.38317 6.49556C8.36656 6.52751 8.34739 6.55115 8.32567 6.56648C7.61456 7.08016 6.96543 7.66316 6.37827 8.31549C4.88578 9.97409 3.79868 11.8819 3.11697 14.0388C3.02752 14.3219 2.9566 14.5857 2.90421 14.8304C2.87674 14.9557 2.83361 15.1288 2.77483 15.3499C2.72883 15.523 2.69529 15.6984 2.6742 15.876C2.62373 16.2996 2.59753 16.5191 2.59562 16.5344C2.56175 16.7523 2.53332 16.9708 2.51032 17.1899C2.48924 17.3886 2.44963 17.3991 2.39148 17.2215C2.3851 17.2004 2.38126 17.1743 2.37998 17.1429C2.37807 17.0458 2.34932 17.0324 2.29373 17.1027C2.27457 17.1267 2.26402 17.1573 2.26498 17.1889L2.28127 18.6687C2.28223 18.6984 2.27169 18.7281 2.25348 18.754C2.18639 18.8453 2.17042 18.9488 2.20556 19.0645C2.2094 19.0766 2.21994 19.1216 2.23719 19.1996C2.257 19.2897 2.32185 19.3088 2.43174 19.2571C2.47391 19.237 2.52278 19.2667 2.5247 19.3136C2.55664 20.1084 2.66526 20.9004 2.85054 21.6894C3.30544 23.6266 4.12101 25.4248 5.29724 27.084C5.3541 27.1652 5.42119 27.1952 5.4985 27.1741Z" fill="white"/>
<path d="M27.996 4.43667C27.911 4.48012 27.8199 4.46606 27.7228 4.3945C26.4693 3.4764 25.0317 2.74964 23.4102 2.21423C22.8186 2.01937 22.1809 1.91618 21.4973 1.90468C21.0105 1.89702 20.5814 1.9197 20.2102 1.97273C19.7981 2.03215 19.3793 2.14076 18.9538 2.29857C18.0696 2.62633 17.2949 3.08602 16.6298 3.67765C16.0778 4.16897 15.795 4.41942 15.7816 4.42901C15.2941 4.77913 14.7402 5.03725 14.1198 5.20336C13.0445 5.49151 11.9843 5.92373 10.939 6.50002C10.9352 6.50194 10.8349 6.56519 10.6381 6.68978C10.5135 6.76836 10.3797 6.83002 10.2365 6.87474C10.1854 6.89071 10.1621 6.87794 10.1666 6.83641C11.3946 6.05375 12.6963 5.47745 14.0719 5.10752C14.9108 4.88199 15.6388 4.48459 16.256 3.91532C16.6042 3.59331 16.7793 3.43167 16.7812 3.43039C18.2782 2.19347 19.9815 1.65423 21.8912 1.81268C22.4611 1.85932 23.0824 1.99892 23.7552 2.23149C25.2707 2.75603 26.6843 3.49109 27.996 4.43667Z" fill="white"/>
<path d="M27.996 4.43667C29.1473 5.24425 30.1813 6.18128 31.0988 7.24762C33.5062 10.0454 34.8738 13.2933 35.2016 16.9913C35.3325 18.4697 35.2629 19.9379 34.9926 21.3959C34.2515 25.3974 32.3491 28.7222 29.2856 31.3705C29.1463 31.3392 29.0355 31.3692 28.953 31.4606C28.8483 31.5769 28.793 31.6376 28.7872 31.6427C27.558 32.6196 26.2316 33.4281 24.8081 34.0683C24.221 34.3328 23.6236 34.5567 23.016 34.7401C21.9893 35.0506 20.9405 35.2691 19.8697 35.3956C19.3681 35.4544 18.8736 35.4774 18.3861 35.4646C18.2047 35.4595 18.1858 35.4017 18.3296 35.2912C18.4452 35.2017 18.5414 35.095 18.6181 34.9711C18.6334 34.9462 18.6593 34.9289 18.689 34.9241C18.8953 34.8896 19.073 34.805 19.2218 34.6701C19.4001 34.5091 19.4914 34.427 19.4959 34.4239C19.7099 34.2571 19.8805 34.1066 20.0077 33.9725C20.453 33.5003 20.968 33.1818 21.5526 33.017C22.4662 32.7595 23.3568 32.4391 24.2245 32.0557C24.2794 32.0308 24.304 31.9768 24.2983 31.8938C26.5715 30.8 28.4723 29.2506 30.0005 27.2457C30.0395 27.2745 30.0807 27.2665 30.1242 27.2218C30.25 27.0921 30.3324 26.9988 30.3714 26.9419C32.2357 24.2304 33.1232 21.2272 33.0337 17.9324C33.0318 17.88 33.0417 17.7937 33.0634 17.6736C33.0794 17.5829 33.0772 17.4938 33.0567 17.4062C33.0037 17.1807 32.9769 17.0638 32.9762 17.0555C32.7098 14.367 31.7866 11.9282 30.2066 9.73935C29.5332 8.80655 29.0284 8.17914 28.6924 7.85714C27.4816 6.6956 26.13 5.73117 24.6375 4.96384C24.5264 4.90634 24.4324 4.84852 24.3558 4.79038C24.2031 4.67282 24.0315 4.60574 23.8411 4.58913C23.8105 4.58625 23.7827 4.57379 23.7606 4.55271C23.6533 4.4492 23.5239 4.40256 23.3725 4.41279C23.354 4.41406 23.3364 4.41119 23.3198 4.40416C22.7384 4.16585 22.1726 4.01954 21.6225 3.96523C21.0552 3.90965 20.4853 3.97418 19.9128 4.15882C19.1742 4.39777 18.5165 4.78687 17.9395 5.3261C17.59 5.65259 17.414 5.8171 17.4115 5.81966C16.6429 6.46048 15.7912 6.90804 14.8565 7.16232C13.3199 7.57953 11.9312 8.21972 10.6905 9.08288C10.6221 9.1308 10.5569 9.18287 10.495 9.23909C10.4324 9.29531 10.3678 9.34643 10.3014 9.39243C10.1103 9.52468 9.9634 9.67163 9.86054 9.83327C9.82412 9.89142 9.84616 9.91474 9.92666 9.90324C7.82466 11.818 6.57974 14.1587 6.19192 16.9251C6.10248 17.5609 6.07213 18.1975 6.10088 18.8352C6.21844 21.4777 7.14837 23.8119 8.89067 25.8379C9.82987 26.9304 10.9499 27.8243 12.2507 28.5194C12.3114 28.6382 12.4152 28.7328 12.5622 28.8031C13.9952 29.4867 15.4788 29.8867 17.0128 30.0029C17.0447 30.0055 17.0511 30.0195 17.032 30.0451C16.9432 30.1601 16.848 30.2703 16.7464 30.3757C16.0365 31.1137 15.2076 31.481 14.2594 31.4778C13.7496 31.4759 13.134 31.3251 12.4127 31.0255C11.8159 30.777 11.2406 30.485 10.6866 30.1496C10.242 29.8806 9.8666 29.633 9.56057 29.4068C9.21109 29.1487 8.86895 28.8551 8.53416 28.5261C8.46069 28.4545 8.3805 28.3913 8.29361 28.3363C8.19842 28.2769 8.11983 28.2715 8.05786 28.3201C7.65471 27.9495 7.28063 27.5514 6.93562 27.1259C6.96884 27.1023 6.98577 27.071 6.98641 27.032C6.98705 27.0052 6.97427 26.9758 6.94807 26.9438C5.20002 24.8048 4.1915 22.3619 3.92252 19.6153C3.88291 19.2115 3.86662 18.9473 3.87365 18.8227C3.88898 18.5729 3.94808 18.3119 4.05094 18.0397C4.09375 17.926 4.05733 17.8503 3.94169 17.8126C3.9139 17.803 3.89473 17.779 3.89377 17.7512C3.89249 17.5404 3.92284 17.2072 3.98482 16.7517C4.28191 14.5679 5.01474 12.6093 6.1833 10.876C6.21077 10.8344 6.20598 10.7725 6.16892 10.69C7.23271 9.12664 8.56548 7.84205 10.1666 6.83641C10.1621 6.87794 10.1854 6.89071 10.2365 6.87474C10.3797 6.83002 10.5135 6.76836 10.6381 6.68978C10.8349 6.56519 10.9352 6.50194 10.939 6.50002C11.9843 5.92373 13.0445 5.49151 14.1198 5.20336C14.7402 5.03725 15.2941 4.77913 15.7816 4.42901C15.795 4.41942 16.0778 4.16897 16.6298 3.67765C17.2949 3.08602 18.0696 2.62633 18.9538 2.29857C19.3793 2.14076 19.7981 2.03215 20.2102 1.97273C20.5814 1.9197 21.0105 1.89702 21.4973 1.90468C22.1809 1.91618 22.8186 2.01937 23.4102 2.21423C25.0317 2.74964 26.4693 3.4764 27.7228 4.3945C27.8199 4.46606 27.911 4.48012 27.996 4.43667Z" fill="white"/>
<path d="M30.0005 27.2457C31.6917 24.9655 32.6577 22.4252 32.898 19.6249C32.9516 18.9968 32.9593 18.3585 32.921 17.7101C32.7191 14.3187 31.5253 11.3379 29.3396 8.76759C27.6586 6.79017 25.5805 5.34593 23.1054 4.43484C22.5163 4.21762 21.9924 4.09782 21.5337 4.07546C20.1767 4.00774 18.9896 4.46999 17.9724 5.46221C17.2645 6.15351 16.4576 6.67805 15.5516 7.03583C15.5516 7.03583 15.1152 7.1716 14.2463 7.44314C12.6356 7.9466 11.1955 8.76662 9.92666 9.90324C9.84616 9.91474 9.82412 9.89142 9.86054 9.83327C9.9634 9.67163 10.1103 9.52468 10.3014 9.39243C10.3678 9.34643 10.4324 9.29531 10.495 9.23909C10.5569 9.18287 10.6221 9.1308 10.6905 9.08288C11.9312 8.21972 13.3199 7.57953 14.8565 7.16232C15.7912 6.90804 16.6429 6.46048 17.4115 5.81966C17.414 5.8171 17.59 5.65259 17.9395 5.3261C18.5165 4.78687 19.1742 4.39777 19.9128 4.15882C20.4853 3.97418 21.0552 3.90965 21.6225 3.96523C22.1726 4.01954 22.7384 4.16585 23.3198 4.40416C23.3364 4.41119 23.354 4.41406 23.3725 4.41279C23.5239 4.40256 23.6533 4.4492 23.7606 4.55271C23.7827 4.57379 23.8105 4.58625 23.8411 4.58913C24.0315 4.60574 24.2031 4.67282 24.3558 4.79038C24.4324 4.84852 24.5264 4.90634 24.6375 4.96384C26.13 5.73117 27.4816 6.6956 28.6924 7.85714C29.0284 8.17914 29.5332 8.80655 30.2066 9.73935C31.7866 11.9282 32.7098 14.367 32.9762 17.0555C32.9769 17.0638 33.0037 17.1807 33.0567 17.4062C33.0772 17.4938 33.0794 17.5829 33.0634 17.6736C33.0417 17.7937 33.0318 17.88 33.0337 17.9324C33.1232 21.2272 32.2357 24.2304 30.3714 26.9419C30.3324 26.9988 30.25 27.0921 30.1242 27.2218C30.0807 27.2665 30.0395 27.2745 30.0005 27.2457Z" fill="white"/>
<path d="M2.95852 9.20487C3.04349 9.23937 3.05947 9.28921 3.00644 9.35438C2.96874 9.40102 2.94861 9.42689 2.94606 9.432C2.11931 10.6951 1.48328 12.1208 1.03796 13.7092C0.696143 14.9276 0.491693 16.0619 0.424608 17.1123C0.365189 18.0419 0.370301 18.9696 0.439942 19.8954C0.488499 20.5413 0.580502 21.1729 0.715951 21.7901C1.06927 23.4071 1.63278 24.953 2.4065 26.4276C3.22878 27.9935 4.27531 29.379 5.5461 30.584C6.00356 31.0178 6.48721 31.4353 6.99706 31.8366C8.44227 32.9738 10.0577 33.8635 11.8435 34.5056C12.4709 34.7311 13.0782 34.8618 13.6653 34.8976C15.8178 35.0305 17.6483 34.3586 19.1568 32.8821C19.358 32.6853 19.5529 32.5164 19.7414 32.3752C19.9228 32.2391 20.1455 32.1103 20.4093 31.9889C20.8055 31.8068 21.2118 31.6532 21.6284 31.528C22.2826 31.3325 22.6855 31.2044 22.8369 31.1437C24.8916 30.3259 26.648 29.1126 28.1059 27.5038C30.0629 25.343 31.2229 22.7813 31.5858 19.8187C31.6068 19.6468 31.6148 19.1443 31.6097 18.3112C31.6097 18.2882 31.6046 18.2726 31.5944 18.2643C31.5842 18.2566 31.572 18.2556 31.558 18.2614C31.5398 18.27 31.5263 18.2882 31.5235 18.3103L31.4593 18.7818C31.4554 18.8105 31.4343 18.8316 31.4133 18.8278L30.9897 18.7501C30.9619 18.7454 30.9408 18.7195 30.936 18.6869C30.9092 18.4984 31.0005 18.4374 31.2101 18.5038C31.2724 18.523 31.3375 18.4828 31.3481 18.4186C31.3775 18.2333 31.2513 18.2045 30.9695 18.3323C30.8929 18.3668 30.8344 18.431 30.8066 18.5106C30.7938 18.5476 30.7513 18.5556 30.6792 18.5345C30.6504 18.5259 30.6293 18.5019 30.6245 18.4722C30.5894 18.2467 30.644 18.0448 30.7884 17.8665C30.8076 17.8429 30.821 17.8151 30.8287 17.7832C30.8555 17.6745 30.9104 17.5809 30.9935 17.5024C31.0593 17.4397 31.1312 17.4286 31.2091 17.4688C31.2398 17.4851 31.2714 17.4889 31.2963 17.4803C31.4165 17.4375 31.4909 17.3723 31.5196 17.2848C31.5727 17.1244 31.587 16.9404 31.5628 16.7328C31.5628 16.729 31.5318 16.5497 31.4698 16.1952C31.1887 14.5896 30.6494 13.085 29.8521 11.6813C29.5416 11.1337 29.1854 10.6041 28.7835 10.0923C27.1 7.9475 24.9734 6.42371 22.4037 5.52093C21.9737 5.37015 21.5207 5.31169 21.0447 5.34556C20.5949 5.3775 20.1659 5.49953 19.7577 5.71165C19.2625 5.96913 18.8328 6.32053 18.4687 6.76584C18.4482 6.79076 18.4536 6.80546 18.4849 6.80993C18.7533 6.84699 19.022 6.88309 19.2909 6.91823C19.6238 6.96167 19.8925 7.00448 20.0969 7.04665C22.664 7.57374 24.8066 8.77425 26.5247 10.6482C27.651 11.8774 28.4839 13.3191 29.0231 14.9732C29.2084 15.5431 29.3464 16.1626 29.4371 16.8315C29.5227 17.4666 29.5758 18.1007 29.5962 18.7339C29.5988 18.806 29.6119 18.808 29.6355 18.7396C29.6847 18.5984 29.7374 18.5294 29.7936 18.5326C29.8233 18.5345 29.8492 18.5594 29.8559 18.593L29.9335 19.0051C29.9393 19.0319 29.9249 19.0626 29.8981 19.0846C29.8329 19.1376 29.7502 19.1578 29.6499 19.145C29.5876 19.1373 29.531 19.1824 29.5253 19.2456C29.4921 19.597 29.4483 19.9475 29.394 20.2969C29.3384 20.6528 29.2617 20.9972 29.164 21.33C28.8458 22.4111 28.4078 23.4426 27.8501 24.4246C27.8188 24.4795 27.7399 24.5923 27.6133 24.7629C27.5367 24.867 27.4651 24.9859 27.3987 25.1194C27.306 25.3079 27.1684 25.4794 26.9856 25.634C26.9601 25.6551 26.9377 25.6654 26.9185 25.6647C26.886 25.6634 26.8671 25.6395 26.862 25.5928C28.2158 23.9093 29.0399 22.0148 29.3338 19.9089C29.42 19.2886 29.4491 18.6512 29.421 17.997C29.2836 14.8664 28.0787 12.2331 25.8061 10.0972C23.7002 8.11854 21.1468 7.05508 18.1459 6.90685C18.1133 6.90557 18.1091 6.89439 18.1334 6.87331C18.3455 6.69058 18.5551 6.50594 18.7621 6.31938C19.0471 6.06254 19.263 5.88524 19.41 5.78749C20.3242 5.17861 21.3082 5.04795 22.3617 5.39552C24.3078 6.03698 26.0709 7.13335 27.6509 8.68461C29.4309 10.4327 30.6448 12.4928 31.2927 14.8651C31.7323 16.477 31.862 18.1443 31.6818 19.8668C31.462 21.9681 30.7697 23.9309 29.605 25.7549C29.2626 26.291 28.8808 26.8024 28.4598 27.2893C26.6989 29.3255 24.5257 30.7505 21.94 31.5645C21.1063 31.8265 20.628 31.9872 20.5054 32.0466C20.0441 32.2683 19.6272 32.5634 19.2547 32.9321C18.7972 33.3844 18.288 33.7684 17.7271 34.084C16.1145 34.9913 14.4383 35.2501 12.6985 34.8603C12.1938 34.7472 11.5897 34.5415 10.8863 34.2431C7.87319 32.966 5.40508 31.0064 3.48197 28.3645C3.10118 27.8413 2.75617 27.304 2.44694 26.7526C0.988313 24.1516 0.261234 21.3471 0.265707 18.3391C0.270179 15.043 1.16766 11.9982 2.95852 9.20487Z" fill="white"/>
<path d="M6.16892 10.69C6.20598 10.7725 6.21077 10.8344 6.1833 10.876C5.01474 12.6093 4.28191 14.5679 3.98482 16.7517C3.92284 17.2072 3.89249 17.5404 3.89377 17.7512C3.89473 17.779 3.9139 17.803 3.94169 17.8126C4.05733 17.8503 4.09375 17.926 4.05094 18.0397C3.94808 18.3119 3.88898 18.5729 3.87365 18.8227C3.86662 18.9473 3.88291 19.2115 3.92252 19.6153C4.1915 22.3619 5.20002 24.8048 6.94807 26.9438C6.97427 26.9758 6.98705 27.0052 6.98641 27.032C6.98577 27.071 6.96884 27.1023 6.93562 27.1259C5.09492 24.9019 4.0558 22.3946 3.81749 19.6032C3.54276 16.385 4.32631 13.4137 6.16892 10.69Z" fill="white"/>
<path d="M24.9731 27.4338C25.0159 27.4332 25.0219 27.4485 24.9913 27.4798C24.9261 27.545 24.8383 27.6728 24.7277 27.8632C24.6779 27.9488 24.5779 27.9993 24.4278 28.0146C24.3961 28.0184 24.3664 28.0309 24.3434 28.0501C24.0521 28.2897 23.6451 28.5229 23.1225 28.7497C22.4612 29.0359 21.9178 29.2547 21.4923 29.4062C21.4885 29.4074 21.191 29.4956 20.6001 29.6707C19.388 30.0291 18.3479 30.6683 17.4796 31.5883C17.3352 31.7417 17.194 31.865 17.056 31.9583C15.5572 32.9716 13.9493 33.1319 12.2326 32.4394C10.7331 31.8343 9.3837 31.067 8.18447 30.1374C8.18 30.1342 8.09342 30.0824 7.92475 29.9821C7.80783 29.9125 7.72701 29.8083 7.68229 29.6697C7.6727 29.6419 7.65258 29.6179 7.62479 29.6036C7.56089 29.5691 7.56952 29.5406 7.65066 29.5183C9.12334 30.8255 10.7548 31.799 12.5444 32.4392C14.1985 33.0308 15.7239 32.7951 17.1206 31.732C17.2484 31.6355 17.4212 31.4841 17.6391 31.2777C17.864 31.0643 18.0358 30.9113 18.1547 30.8186C18.9367 30.211 19.842 29.7689 20.8707 29.4923C22.335 29.0981 23.7023 28.412 24.9731 27.4338Z" fill="white"/>
<path d="M12.2507 28.5194C13.8435 29.3672 15.5648 29.8221 17.4138 29.8835C17.4502 29.8847 17.4544 29.8969 17.4263 29.9199C17.1848 30.1211 16.9497 30.3246 16.7209 30.5303C16.4104 30.8102 16.1673 31.0019 15.9916 31.1054C15.4454 31.4274 14.8611 31.5877 14.2388 31.5865C13.7832 31.5852 13.2239 31.4532 12.5607 31.1907C10.8848 30.5256 9.38359 29.5685 8.05786 28.3201C8.11983 28.2715 8.19842 28.2769 8.29361 28.3363C8.3805 28.3913 8.46069 28.4545 8.53416 28.5261C8.86895 28.8551 9.21109 29.1487 9.56057 29.4068C9.8666 29.633 10.242 29.8806 10.6866 30.1496C11.2406 30.485 11.8159 30.777 12.4127 31.0255C13.134 31.3251 13.7496 31.4759 14.2594 31.4778C15.2076 31.481 16.0365 31.1137 16.7464 30.3757C16.848 30.2703 16.9432 30.1601 17.032 30.0451C17.0511 30.0195 17.0447 30.0055 17.0128 30.0029C15.4788 29.8867 13.9952 29.4867 12.5622 28.8031C12.4152 28.7328 12.3114 28.6382 12.2507 28.5194Z" fill="white"/>
<path d="M29.2856 31.3705C25.9262 34.22 21.9813 35.6405 17.4502 35.6316C17.2777 35.6309 17.2707 35.5967 17.4291 35.529C18.2207 35.191 18.9369 34.7505 19.5778 34.2074C19.5803 34.2049 19.7263 34.0678 20.0157 33.7963C20.516 33.3248 21.098 32.9967 21.7619 32.8121C22.2034 32.6894 22.4251 32.6277 22.427 32.6271C23.064 32.4169 23.6875 32.1723 24.2983 31.8938C24.304 31.9768 24.2794 32.0308 24.2245 32.0557C23.3568 32.4391 22.4662 32.7595 21.5526 33.017C20.968 33.1818 20.453 33.5003 20.0077 33.9725C19.8805 34.1066 19.7099 34.2571 19.4959 34.4239C19.4914 34.427 19.4001 34.5091 19.2218 34.6701C19.073 34.805 18.8953 34.8896 18.689 34.9241C18.6593 34.9289 18.6334 34.9462 18.6181 34.9711C18.5414 35.095 18.4452 35.2017 18.3296 35.2912C18.1858 35.4017 18.2047 35.4595 18.3861 35.4646C18.8736 35.4774 19.3681 35.4544 19.8697 35.3956C20.9405 35.2691 21.9893 35.0506 23.016 34.7401C23.6236 34.5567 24.221 34.3328 24.8081 34.0683C26.2316 33.4281 27.558 32.6196 28.7872 31.6427C28.793 31.6376 28.8483 31.5769 28.953 31.4606C29.0355 31.3692 29.1463 31.3392 29.2856 31.3705Z" fill="white"/>
<path d="M40.4531 34.1807H48.2343V14.9932C48.2343 10.2432 51.0781 7.02441 55.5468 7.02441C59.9843 7.02441 62.1718 9.64941 62.1718 14.3369V34.1807H69.9531V12.7744C69.9531 5.11816 65.7968 0.430664 58.4843 0.430664C53.3906 0.430664 49.8593 2.80566 48.0781 6.74316H47.9218V1.05566H40.4531V34.1807Z" fill="white"/>
<path d="M90.4843 6.39941C94.9531 6.39941 97.9531 9.68066 98.1093 14.3682H82.6406C82.9531 9.74316 86.1093 6.39941 90.4843 6.39941ZM98.1406 24.2744C97.2968 27.0244 94.5468 28.8369 90.9218 28.8369C85.8281 28.8369 82.5781 25.2744 82.5781 19.9619V19.4932H105.734V16.9619C105.734 6.89941 99.8593 0.368164 90.4531 0.368164C80.8906 0.368164 74.8281 7.27441 74.8281 17.7432C74.8281 28.3057 80.8281 34.8369 90.7656 34.8369C98.6093 34.8369 104.422 30.5244 105.422 24.2744H98.1406Z" fill="white"/>
</svg>
